<?xml version="1.0" standalone="no"?>
<!DOCTYPE svg PUBLIC "-//W3C//DTD SVG 20010904//EN"
 "http://www.w3.org/TR/2001/REC-SVG-20010904/DTD/svg10.dtd">
<svg version="1.0" xmlns="http://www.w3.org/2000/svg"
 width="500.000000pt" height="500.000000pt" viewBox="0 0 500.000000 500.000000"
 preserveAspectRatio="xMidYMid meet">
<metadata>
Created by potrace 1.11, written by Peter Selinger 2001-2013
</metadata>
<g transform="translate(0.000000,500.000000) scale(0.100000,-0.100000)"
fill="#000000" stroke="none">
<path d="M0 2500 l0 -2500 2500 0 2500 0 0 2500 0 2500 -2500 0 -2500 0 0
-2500z m3142 1086 c417 -240 597 -349 605 -366 10 -20 12 -180 10 -727 -2
-688 -2 -703 -22 -722 -11 -10 -283 -171 -605 -356 -458 -265 -592 -338 -620
-339 -40 -1 -7 -18 -794 437 -267 154 -427 252 -440 270 -21 28 -21 35 -21
722 0 681 0 694 20 721 21 27 1155 690 1205 704 13 3 35 4 47 2 13 -2 289
-158 615 -346z"/>
<path d="M2386 3482 c-2 -4 -14 -53 -25 -107 -29 -143 -59 -276 -63 -280 -2
-2 -52 -22 -113 -45 -145 -55 -198 -60 -294 -27 -41 15 -78 24 -83 21 -17 -11
-6 -46 35 -111 53 -83 108 -133 145 -133 15 0 76 23 136 50 69 32 112 47 116
40 8 -14 -51 -228 -72 -260 -9 -14 -19 -59 -23 -100 -13 -134 -50 -203 -128
-240 -29 -14 -32 -20 -35 -64 -2 -27 -1 -61 3 -74 7 -28 22 -27 152 12 174 53
336 95 344 90 5 -3 9 -36 9 -74 0 -82 -3 -85 -107 -100 -116 -17 -244 -47
-359 -84 -124 -40 -149 -43 -162 -19 -6 10 -16 14 -26 10 -35 -14 -13 -279 26
-303 5 -3 48 33 94 81 l85 88 152 -156 c167 -171 175 -176 278 -164 66 8 99
25 126 65 33 50 38 111 19 237 -10 60 -18 132 -19 160 l-2 49 60 9 c84 12 274
0 302 -19 42 -27 30 -62 -43 -132 -36 -35 -63 -66 -60 -70 10 -9 123 31 231
82 87 41 155 88 155 107 0 15 -67 84 -125 129 -51 39 -57 41 -87 31 -18 -6
-100 -18 -183 -26 -82 -8 -171 -17 -197 -21 l-48 -7 0 80 c0 53 4 84 13 91 6
5 39 17 72 27 76 22 199 78 242 111 54 41 43 61 -62 114 -83 42 -93 50 -136
114 -26 38 -59 76 -74 85 -26 16 -27 15 -54 -17 -27 -32 -71 -175 -71 -232 0
-41 -11 -68 -28 -75 -48 -18 -268 -63 -275 -56 -5 5 32 132 81 282 50 151 96
294 104 318 12 40 19 47 93 87 44 24 114 55 156 69 85 29 162 73 178 104 20
37 13 59 -22 70 -44 15 -226 19 -229 6 -1 -5 12 -19 30 -30 17 -11 31 -26 29
-34 -2 -14 -146 -76 -155 -66 -3 3 2 38 11 78 34 146 34 149 -8 186 -49 43
-97 62 -109 43z m315 -920 c34 -34 46 -71 28 -83 -8 -5 -31 -9 -53 -9 l-39 0
7 52 c11 79 16 83 57 40z m-229 -547 c6 -6 -17 -183 -27 -208 -16 -40 -79 -48
-180 -22 -84 21 -187 65 -182 79 7 22 105 71 227 112 121 42 151 49 162 39z"/>
</g>
</svg>
